# xmcd database file
#
# Track frame offsets:
# 150
# 16226
# 32926
# 47850
# 62630
# 74501
# 88465
# 104224
# 122316
# 135877
# 154967
# 166792
# 182533
# 199187
# 215428
# 233696
# 244819
# 256551
# 270654
# 285265
#
# Disc length: 3983 seconds
#
# Revision: 1
# Processed by: cddbd v1.5.2PL0 Copyright (c) Steve Scherf et al.
# Submitted via: CD-Runner 2008.10
#
DISCID=170f8d14
DTITLE=Gino e Geno - Levanta a Poeira
DYEAR=2007
DGENRE=Southern Rock
TTITLE0=Agita Aí
TTITLE1=Eu já fui de voce
TTITLE2=A galera do chapéu
TTITLE3=To ficando com ela
TTITLE4=O Olhar dessa Malvada
TTITLE5=Tá Nervoso... Vai Pesca
TTITLE6=Dando Mole
TTITLE7=Estrela de Ouro
TTITLE8=Sou Feio Mas to na Moda
TTITLE9=Bebo Pa Carai!
TTITLE10=A Viola Chorou
TTITLE11=Agora é Só Alegria
TTITLE12=Ela chorou de Amor
TTITLE13=Pinga Na Garganta
TTITLE14=Bailão
TTITLE15=Bate Coxa
TTITLE16=Boi do Saco Roxo
TTITLE17=Tem Jeito Não
TTITLE18=Nois Não Vive É sem Dinheiro
TTITLE19=Vazei na Braguiara
EXTD=
EXTT0=
EXTT1=
EXTT2=
EXTT3=
EXTT4=
EXTT5=
EXTT6=
EXTT7=
EXTT8=
EXTT9=
EXTT10=
EXTT11=
EXTT12=
EXTT13=
EXTT14=
EXTT15=
EXTT16=
EXTT17=
EXTT18=
EXTT19=
PLAYORDER=
